<?xml version="1.0" encoding="utf-8"?>
<!-- Generator: Adobe Illustrator 27.0.1, SVG Export Plug-In . SVG Version: 6.00 Build 0)  -->
<svg version="1.1" id="head" xmlns="http://www.w3.org/2000/svg" xmlns:xlink="http://www.w3.org/1999/xlink" x="0px" y="0px"
	 viewBox="0 0 800 800" style="enable-background:new 0 0 800 800;" xml:space="preserve">
<style type="text/css">
	.st0{fill:#CC9712;}
	.st1{fill:#111111;}
	.st2{fill:#FFFFFF;}
	.st3{fill:#7B4B2C;}
</style>
<g>
	<g>
		<path class="st0" d="M315.7,366.8l-43.3-120.3c-23.4-62.8,9.1-132.6,72.2-155.2l3.3-1.2l82.8,250.6L315.7,366.8z"/>
		<path class="st1" d="M314.5,369.1l-43.9-122c-11.5-30.9-10.2-64.3,3.7-94.2c13.9-29.9,38.7-52.4,69.7-63.5l5.2-1.9l84.1,254.6
			L314.5,369.1z M346.7,92.7l-1.4,0.5c-30,10.7-54,32.5-67.4,61.4c-13.5,28.9-14.7,61.3-3.6,91.1L317,364.5l111.1-25.2L346.7,92.7z"
			/>
	</g>
	<g>
		<g>
			<path class="st0" d="M695.5,584.6c-73.8,97.8-218,87.6-239.3,86c-31-2.2-88-10.8-151.8-49.3c-82.9,21.8-169-9-214.3-75.1
				c-56.2-82-20.2-175.6-17.2-183l92.5,26.5c9.4-49.2,52.6-86.5,104.6-86.5c3,0,6,0.1,9,0.4c4.7,0.4,9.3,1.1,13.8,2.1h0
				c37.4-15.8,101.1-36.5,180.8-32.5c19,1,36.7,3.2,52.9,6.3c16.2,3,30.8,6.8,43.8,10.7c33.1-60.3,66.1-120.5,99.2-180.8l20.7,17.9
				c43,37.1,54,99.3,26.5,149l-43.1,77.5c9.9,8.3,56.3,51,59.7,119.7C735.9,529.9,706.6,569.9,695.5,584.6z"/>
			<path class="st1" d="M484.5,673.6c-9,0-18.5-0.3-28.4-1c-52.1-3.7-104.7-20.7-151.9-49.1c-17.7,4.6-35.6,6.8-53.2,6.8
				c-65,0-126.3-30.1-162.4-82.9c-23.8-34.7-34.2-75.3-31.2-120.7c2.3-34.4,11.9-59.5,13.7-64.2l0.7-1.7l92.1,26.4
				c10.5-49.9,54.8-85.9,106.1-85.9c3,0,6.1,0.1,9.1,0.4c4.5,0.4,9,1,13.4,2c58.5-24.6,119.4-35.5,181.1-32.4
				c17.8,0.9,35.6,3,53.1,6.3c14.2,2.6,28.5,6.1,42.5,10.3c28.5-52,57.1-104,85.6-156.1l14-25.5l22.6,19.5
				c21.1,18.2,35.5,43.4,40.4,70.9c4.9,27.5,0.1,56.1-13.5,80.5L676,353.3c11.8,10.3,55.8,52.9,59.1,120.1
				c2.9,58.3-27.9,99-38,112.4c-31.3,41.5-78.6,68.8-140.5,81C539.7,670.2,514.8,673.6,484.5,673.6z M304.7,619.2l0.7,0.4
				c46.9,28.4,99.1,45.3,150.9,49c42.9,3.1,77.8-1.4,99.5-5.7c60.9-12,107.3-38.8,138.1-79.5l0,0c9.9-13.1,40-52.9,37.1-109.8
				c-3.4-68.2-49.7-110.5-59-118.3l-1.3-1.1l43.9-78.9c13.1-23.6,17.8-51.3,13-77.9c-4.7-26.6-18.6-51-39-68.6l-18.8-16.2
				l-11.6,21.1c-28.8,52.5-57.6,105-86.4,157.5l-0.8,1.4l-1.6-0.5c-14.3-4.4-29-7.9-43.6-10.7c-17.3-3.2-35-5.3-52.6-6.2
				c-61.2-3.1-121.8,7.7-179.9,32.3l-0.4,0.2l-0.8,0c-4.5-1-9-1.7-13.5-2c-2.9-0.2-5.9-0.4-8.8-0.4c-50.1,0-93.3,35.7-102.6,84.8
				l-0.4,2.2l-92.8-26.6c-2.8,7.3-10.7,30.4-12.8,61.3c-3,44.5,7.2,84.3,30.5,118.2c45.2,65.9,130.4,95.7,212.2,74.3L304.7,619.2z"
				/>
		</g>
	</g>
	<g>
		<path class="st1" d="M376.4,409.8c0,13.6-2.5,26.5-7.2,38.4l-99.9-28.7l9.6-115.9c4.7,0.4,9.3,1.1,13.8,2.1h0
			C340.6,316.1,376.4,358.8,376.4,409.8z"/>
		<path class="st1" d="M369.6,448.8l-0.5-0.1l-100.4-28.8l9.7-116.8l0.5,0c4.6,0.4,9.3,1.1,13.8,2.1l0.1,0
			c23.5,5.1,44.8,18.2,60.1,37c15.5,19,24,43,24,67.6c0,13.3-2.4,26.3-7.2,38.6L369.6,448.8z M269.9,419.2l99.1,28.4
			c4.6-12.1,7-24.8,7-37.8c0-24.3-8.4-48.1-23.8-66.9c-15.1-18.5-36.2-31.5-59.5-36.6l-0.1,0c-4.4-1-8.8-1.6-13.2-2L269.9,419.2z"/>
	</g>
	<g>
		<path class="st2" d="M278.9,303.6l-9.6,115.9l-104-29.8c9.4-49.2,52.6-86.5,104.6-86.5C273,303.3,276,303.4,278.9,303.6z"/>
		<path class="st1" d="M269.8,420.2l-0.6-0.2l-104.4-30l0.1-0.5c9.6-50.3,53.8-86.9,105.1-86.9c3,0,6,0.1,9,0.4l0.5,0l0,0.5
			L269.8,420.2z M166,389.3l102.9,29.5l9.5-114.7c-2.8-0.2-5.6-0.3-8.4-0.3C219.3,303.8,175.6,339.7,166,389.3z"/>
	</g>
	<g>
		<g>
			<path class="st1" d="M370.5,450.6l-207.4-59.5l0.3-1.8c9.7-51,54.5-88.1,106.6-88.1c3,0,6.1,0.1,9.1,0.4
				c4.6,0.4,9.3,1.1,13.9,2.1l0.2,0c23.8,5.2,45.4,18.5,60.9,37.5c15.7,19.3,24.4,43.6,24.4,68.5c0,13.5-2.5,26.7-7.3,39.2
				L370.5,450.6z M167.7,388.3l200.4,57.5c4.2-11.5,6.4-23.6,6.4-36c0-24-8.3-47.4-23.5-66c-14.9-18.2-35.6-31-58.5-36.1l-0.2,0
				c-4.5-1-9-1.7-13.5-2c-2.9-0.2-5.9-0.4-8.8-0.4C220.4,305.3,177.7,340.1,167.7,388.3z"/>
		</g>
	</g>
	<g>
		<path class="st1" d="M597.7,440.3c0,9.9-1.3,19.4-3.9,28.5l-104.1-9l10.4-125.6C554.7,338.7,597.7,384.5,597.7,440.3z"/>
	</g>
	<g>
		<path class="st2" d="M500.1,334.2l-10.4,125.6l-104.5-9c-0.4-3.5-0.5-7-0.5-10.5c0-58.8,47.7-106.5,106.5-106.5
			C494.2,333.8,497.2,334,500.1,334.2z"/>
	</g>
	<g>
		<g>
			<path class="st1" d="M595.3,470.9l-211.9-18.2l-0.2-1.6c-0.4-3.5-0.5-7.1-0.5-10.7c0-59.8,48.7-108.5,108.5-108.5
				c3,0,6.1,0.1,9.1,0.4c27,2.2,52.1,14.5,70.6,34.5c18.6,20.1,28.8,46.2,28.8,73.6c0,9.9-1.3,19.6-3.9,29L595.3,470.9z M387,449
				l205.3,17.7c2.2-8.5,3.4-17.4,3.4-26.3c0-26.4-9.9-51.6-27.8-70.9c-17.8-19.2-41.9-31-68-33.2c-2.9-0.2-5.9-0.4-8.8-0.4
				c-57.6,0-104.5,46.9-104.5,104.5C386.7,443.2,386.8,446.2,387,449z"/>
		</g>
	</g>
	<g>
		<polygon class="st1" points="593.6,470.8 375.3,452 144,385.6 145.1,381.8 376,448.1 594,466.8 		"/>
	</g>
	<g>
		<rect x="643.1" y="369.6" transform="matrix(0.4859 -0.874 0.874 0.4859 16.3546 770.987)" class="st1" width="40.8" height="4"/>
	</g>
	<g>
		<circle class="st3" cx="90.2" cy="374.9" r="54.4"/>
		<path class="st1" d="M90.1,431.3c-31.1,0-56.4-25.3-56.4-56.4c0-31.1,25.3-56.4,56.4-56.4s56.4,25.3,56.4,56.4
			C146.6,406,121.3,431.3,90.1,431.3z M90.1,322.5c-28.9,0-52.4,23.5-52.4,52.4s23.5,52.4,52.4,52.4s52.4-23.5,52.4-52.4
			S119.1,322.5,90.1,322.5z"/>
	</g>
	<g>
		<polygon class="st2" points="534.1,401.5 488.2,369.7 483.6,425.3 		"/>
	</g>
	<g>
		<polygon class="st2" points="312.3,370.6 266.3,338.7 261.7,394.4 		"/>
	</g>
	<g>
		<path class="st3" d="M516.6,325.1l-54,12.3c-15.7,3.6-31.4-6.3-34.9-22v0c-3.6-15.7,6.3-31.4,22-34.9l54-12.3
			c15.7-3.6,31.4,6.3,34.9,22v0C542.2,305.8,532.3,321.5,516.6,325.1z"/>
		<path class="st1" d="M456.1,340.1c-5.8,0-11.5-1.6-16.6-4.8c-7.1-4.4-12-11.4-13.8-19.5c-1.8-8.1-0.4-16.5,4-23.5
			c4.4-7.1,11.4-12,19.5-13.8l54-12.3c8.1-1.8,16.5-0.4,23.5,4c7.1,4.4,12,11.4,13.8,19.5c3.8,16.8-6.7,33.5-23.5,37.3l-54,12.3
			C460.7,339.8,458.4,340.1,456.1,340.1z M510.2,269.4c-2,0-4.1,0.2-6.1,0.7l-54,12.3c-7.1,1.6-13.1,5.9-17,12
			c-3.9,6.1-5.1,13.4-3.5,20.5c1.6,7.1,5.9,13.1,12,17c6.1,3.9,13.4,5.1,20.5,3.5l54-12.3c14.6-3.3,23.8-17.9,20.5-32.5
			c-1.6-7.1-5.9-13.1-12-17C520.2,270.8,515.2,269.4,510.2,269.4z"/>
	</g>
	<g>
		<path class="st3" d="M343.6,322l-51.2-21c-14.9-6.1-22-23.2-15.9-38.1l0,0c6.1-14.9,23.2-22,38.1-15.9l51.2,21
			c14.9,6.1,22,23.2,15.9,38.1l0,0C375.6,321,358.5,328.2,343.6,322z"/>
		<path class="st1" d="M354.7,326.2c-4,0-8-0.8-11.9-2.4l-51.2-21c-7.7-3.2-13.7-9.1-16.9-16.8c-3.2-7.7-3.2-16.2-0.1-23.9
			s9.1-13.7,16.8-16.9c7.7-3.2,16.2-3.2,23.9-0.1l51.2,21c7.7,3.2,13.7,9.1,16.9,16.8c3.2,7.7,3.2,16.2,0.1,23.9
			s-9.1,13.7-16.8,16.9C362.9,325.4,358.8,326.2,354.7,326.2z M303.6,246.8c-10.7,0-20.9,6.4-25.2,16.9c-2.8,6.7-2.7,14.1,0.1,20.8
			s8,11.9,14.8,14.7l51.2,21c13.9,5.7,29.8-1,35.5-14.8c5.7-13.9-1-29.8-14.8-35.5l-51.2-21C310.5,247.5,307,246.8,303.6,246.8z"/>
	</g>
	<g>
		<g>
			<path class="st2" d="M484.8,630.2c-26.3,0-52.5-4.2-78.2-12.7c-24.9-8.2-38.4-35-30.2-59.9c8.2-24.9,35-38.4,59.9-30.2
				c33,10.9,67.8,10.4,100.6-1.3c24.7-8.8,51.8,4,60.7,28.7c8.8,24.7-4,51.8-28.7,60.7C541.4,625.2,513.1,630.2,484.8,630.2z"/>
			<path class="st1" d="M484.8,632.2c-26.6,0-53.1-4.3-78.8-12.8c-25.9-8.5-40-36.6-31.5-62.4c8.5-25.9,36.6-40,62.4-31.5
				c32.6,10.7,66.9,10.3,99.3-1.3c12.4-4.4,25.9-3.8,37.8,1.9c11.9,5.7,21,15.6,25.4,28c9.2,25.7-4.2,54-29.9,63.2
				C542,627.2,513.5,632.2,484.8,632.2z M421.5,527c-19.1,0-36.9,12.1-43.2,31.2c-7.8,23.8,5.1,49.5,28.9,57.4
				c25.3,8.3,51.4,12.6,77.5,12.6c28.3,0,56.3-4.9,83.5-14.6c23.6-8.4,35.9-34.5,27.5-58.1c-4.1-11.4-12.4-20.6-23.4-25.8
				c-11-5.2-23.3-5.8-34.7-1.7c-33.2,11.9-68.5,12.3-101.9,1.3C431,527.7,426.2,527,421.5,527z"/>
		</g>
	</g>
	<g>
		<line class="st2" x1="484.2" y1="535.2" x2="484.8" y2="630.2"/>
		
			<rect x="482.5" y="535.2" transform="matrix(1 -6.129743e-03 6.129743e-03 1 -3.5625 2.9807)" class="st1" width="4" height="95"/>
	</g>
	<g>
		<line class="st2" x1="543.8" y1="524.2" x2="549.8" y2="621.4"/>
		
			<rect x="544.8" y="524.1" transform="matrix(0.9981 -6.124253e-02 6.124253e-02 0.9981 -34.0527 34.5638)" class="st1" width="4" height="97.4"/>
	</g>
	<g>
		<line class="st2" x1="436.3" y1="527.4" x2="425.3" y2="622.9"/>
		
			<rect x="382.8" y="573.1" transform="matrix(0.1148 -0.9934 0.9934 0.1148 -189.9376 937.0906)" class="st1" width="96.1" height="4"/>
	</g>
</g>
</svg>
